<?xml version="1.0" encoding="iso-8859-1"?>
<!-- Generator: Adobe Illustrator 19.0.0, SVG Export Plug-In . SVG Version: 6.00 Build 0)  -->
<svg version="1.1" id="Layer_1" xmlns="http://www.w3.org/2000/svg" xmlns:xlink="http://www.w3.org/1999/xlink" x="0px" y="0px"
	 viewBox="0 0 512 512" style="enable-background:new 0 0 512 512;" xml:space="preserve">
<path style="fill:#E4EAF6;" d="M365.714,219.429C338.286,219.429,292.571,192,256,192s-82.286,27.429-109.714,27.429H36.571v73.143
	H128c50.495,0,91.429,40.934,91.429,91.429v91.429h73.143V384c0-50.495,40.934-91.429,91.429-91.429h91.429v-73.143H365.714z"/>
<circle style="fill:#D7DEED;" cx="256" cy="274.286" r="64"/>
<circle style="fill:#D2FA50;" cx="256" cy="274.286" r="13.714"/>
<g>
	<circle style="fill:#C7CFE2;" cx="256" cy="228.571" r="9.143"/>
	<circle style="fill:#C7CFE2;" cx="256" cy="320" r="9.143"/>
</g>
<circle style="fill:#5B5D6E;" cx="137.143" cy="256" r="22.857"/>
<circle style="fill:#FF82AF;" cx="356.571" cy="256" r="9.143"/>
<circle style="fill:#00DCC8;" cx="374.857" cy="237.714" r="9.143"/>
<circle style="fill:#FF6464;" cx="393.143" cy="256" r="9.143"/>
<circle style="fill:#82B9FF;" cx="374.857" cy="274.286" r="9.143"/>
<path style="fill:#5B5D6E;" d="M256,0C114.615,0,0,114.615,0,256c0,141.384,114.615,256,256,256s256-114.616,256-256
	C512,114.615,397.385,0,256,0z M256,457.143c-111.088,0-201.143-90.055-201.143-201.143S144.912,54.857,256,54.857
	S457.143,144.912,457.143,256S367.088,457.143,256,457.143z"/>
<g>
	<circle style="fill:#C7CFE2;" cx="216.411" cy="251.429" r="9.143"/>
	<circle style="fill:#C7CFE2;" cx="295.589" cy="297.143" r="9.143"/>
	<circle style="fill:#C7CFE2;" cx="295.589" cy="251.429" r="9.143"/>
	<circle style="fill:#C7CFE2;" cx="216.411" cy="297.143" r="9.143"/>
</g>
<g>
	<path style="fill:#464655;" d="M72.794,305.254c4.053-5.09,9.975-9.797,18.634-12.682v-73.143
		c-8.659-2.886-14.582-7.592-18.635-12.682c-5.991-7.525-6.602-17.947-2.959-26.848c10.635-25.983,26.526-49.257,46.391-68.467
		c-17.387,2.144-45.358,7.048-82.771,18.099C12.201,166.845,0,209.985,0,256s12.202,89.155,33.455,126.471
		c37.415,11.05,65.384,15.955,82.771,18.099c-19.865-19.21-35.754-42.485-46.391-68.467
		C66.191,323.201,66.803,312.778,72.794,305.254z"/>
	<path style="fill:#464655;" d="M478.546,129.529c-37.414-11.05-65.384-15.955-82.771-18.099
		c19.865,19.21,35.754,42.485,46.391,68.467c3.643,8.902,3.032,19.323-2.959,26.848c-4.053,5.09-9.976,9.797-18.635,12.682v73.143
		c8.659,2.886,14.582,7.592,18.634,12.682c5.991,7.525,6.602,17.947,2.959,26.849c-10.637,25.983-26.526,49.257-46.391,68.467
		c17.386-2.144,45.357-7.048,82.771-18.099C499.798,345.155,512,302.015,512,256S499.799,166.845,478.546,129.529z"/>
</g>
<g>
</g>
<g>
</g>
<g>
</g>
<g>
</g>
<g>
</g>
<g>
</g>
<g>
</g>
<g>
</g>
<g>
</g>
<g>
</g>
<g>
</g>
<g>
</g>
<g>
</g>
<g>
</g>
<g>
</g>
</svg>
